<svg xmlns="http://www.w3.org/2000/svg" width="1440" height="900" viewBox="0 0 1440 900" fill="none">
  <g opacity="0.3" stroke="currentColor" stroke-width="0.5" fill="none">
    <!-- Layer 1 - large contours -->
    <path d="M-50 180 C200 150, 400 220, 600 180 S900 120, 1100 190 S1300 230, 1500 170" />
    <path d="M-50 280 C150 310, 350 250, 550 290 S800 340, 1000 280 S1250 240, 1500 300" />
    <path d="M-50 400 C180 370, 380 430, 580 390 S820 350, 1020 410 S1280 440, 1500 380" />
    <path d="M-50 520 C200 550, 420 490, 620 530 S860 570, 1060 510 S1300 480, 1500 540" />
    <path d="M-50 640 C170 610, 370 670, 570 630 S810 590, 1010 650 S1270 680, 1500 620" />
    <path d="M-50 760 C210 790, 410 730, 610 770 S850 810, 1050 750 S1310 720, 1500 780" />
    <!-- Layer 2 - medium contours -->
    <path d="M-50 120 C250 100, 450 160, 650 120 S950 80, 1150 140 S1350 170, 1500 110" opacity="0.6" />
    <path d="M-50 230 C180 260, 380 200, 580 240 S830 280, 1030 220 S1280 190, 1500 250" opacity="0.6" />
    <path d="M-50 350 C220 320, 420 380, 620 340 S870 310, 1070 370 S1320 390, 1500 330" opacity="0.6" />
    <path d="M-50 470 C190 500, 390 440, 590 480 S840 520, 1040 460 S1290 430, 1500 490" opacity="0.6" />
    <path d="M-50 590 C210 560, 410 620, 610 580 S860 550, 1060 610 S1310 630, 1500 570" opacity="0.6" />
    <path d="M-50 710 C180 740, 380 680, 580 720 S830 760, 1030 700 S1280 670, 1500 730" opacity="0.6" />
    <path d="M-50 830 C230 800, 430 860, 630 820 S880 790, 1080 850 S1330 870, 1500 810" opacity="0.6" />
    <!-- Layer 3 - fine detail contours -->
    <path d="M-50 150 C300 130, 500 190, 700 150 S1000 110, 1200 170 S1400 200, 1500 140" opacity="0.3" />
    <path d="M-50 310 C160 340, 360 280, 560 320 S810 360, 1010 300 S1260 270, 1500 330" opacity="0.3" />
    <path d="M-50 450 C240 420, 440 480, 640 440 S890 410, 1090 470 S1340 490, 1500 430" opacity="0.3" />
    <path d="M-50 560 C200 530, 400 590, 600 550 S850 520, 1050 580 S1300 600, 1500 540" opacity="0.3" />
    <path d="M-50 680 C230 710, 430 650, 630 690 S880 730, 1080 670 S1330 640, 1500 700" opacity="0.3" />
    <path d="M-50 800 C190 770, 390 830, 590 790 S840 760, 1040 820 S1290 840, 1500 780" opacity="0.3" />
    <!-- Closed contour features (hills) -->
    <ellipse cx="350" cy="300" rx="120" ry="60" opacity="0.2" />
    <ellipse cx="350" cy="300" rx="80" ry="40" opacity="0.15" />
    <ellipse cx="350" cy="300" rx="40" ry="20" opacity="0.1" />
    <ellipse cx="900" cy="550" rx="140" ry="70" opacity="0.2" />
    <ellipse cx="900" cy="550" rx="95" ry="45" opacity="0.15" />
    <ellipse cx="900" cy="550" rx="50" ry="25" opacity="0.1" />
    <ellipse cx="1200" cy="200" rx="100" ry="50" opacity="0.2" />
    <ellipse cx="1200" cy="200" rx="65" ry="32" opacity="0.15" />
    <ellipse cx="1200" cy="200" rx="30" ry="15" opacity="0.1" />
  </g>
</svg>
